<svg width="119" height="14" viewBox="0 0 119 14" fill="none" xmlns="http://www.w3.org/2000/svg">
<g id="logo">
<g id="XMLID_234_">
<path id="XMLID_243_" d="M9.03846 1.28846V7.92308C9.03846 10.1346 8.07692 11.0481 5.76923 11.0481C3.46154 11.0481 2.5 10.1346 2.5 7.92308V1H0.288462C0.144231 1 0 1.14423 0 1.28846V8.01923C0 11.7212 2.35577 13.0192 5.76923 13.0192C9.18269 13.0192 11.5385 11.7212 11.5385 8.01923V1H9.32692C9.18269 1 9.03846 1.09615 9.03846 1.28846Z" fill="black"/>
<path id="XMLID_242_" d="M41.2308 2.92308C41.4231 2.92308 41.5192 2.875 41.5673 2.73077L42.1923 1.14423C42.2404 1.04808 42.1923 1 42.0962 1H33.1538C32.3365 1 32 1.24038 32 1.81731V12.1058C32 12.5865 32.2404 12.8269 32.8654 12.8269H41.1827C41.375 12.8269 41.4712 12.7788 41.5192 12.6346L42.1442 11.0481C42.1923 10.9519 42.1442 10.9038 42.0481 10.9038H34.4519V8.78846C34.4519 8.06731 34.8365 7.73077 35.9423 7.73077H39.2596C39.4519 7.73077 39.5481 7.68269 39.5962 7.53846L40.2212 6C40.2692 5.90385 40.2212 5.85577 40.125 5.85577H34.5V2.875H41.2308V2.92308Z" fill="black"/>
<path id="XMLID_238_" fill-rule="evenodd" clip-rule="evenodd" d="M25.1827 6.57692C26.1442 6.04808 26.5288 5.13462 26.5288 3.98077C26.5288 1.38462 24.4135 1 22.2019 1H17.1538C16.3365 1 16 1.24038 16 1.81731V12.1058C16 12.5865 16.2404 12.8269 16.8654 12.8269H23.0673C25.4231 12.8269 27.0577 11.9135 27.0577 9.55769C27.1058 8.11539 26.5288 6.91346 25.1827 6.57692ZM19 3H22.8942C24.1923 3 24.5769 3.48077 24.5769 4.49038C24.5769 5.5 24.1923 5.98077 22.8942 5.98077H19V3ZM19 11.2212H23.375C24.7692 11.2212 25.1538 10.7404 25.1538 9.63461C25.1538 8.52885 24.7692 8 23.375 8H20.4904C19.3846 8 19 8.33654 19 9.05769V11.2212Z" fill="black"/>
<path id="XMLID_235_" fill-rule="evenodd" clip-rule="evenodd" d="M54.5096 8.06731L57.1538 12.6346C57.2019 12.6827 57.2019 12.8269 57.1058 12.8269H54.8462C54.6538 12.8269 54.6058 12.7788 54.5096 12.6346L52.1058 8.30769H49.9423C48.8365 8.30769 48.4519 8.64423 48.4519 9.36539V12.8269H46.2885C46.1442 12.8269 46 12.6827 46 12.5385V1.81731C46 1.24038 46.3365 1 47.1538 1H52.2019C55.1346 1 56.9135 1.76923 56.9135 4.65385C56.9135 6.86539 55.8077 7.73077 54.5096 8.06731ZM48 6.60577H52.1346C53.6731 6.60577 54.0096 6.02885 54.0096 4.77885C54.0096 3.57692 53.6731 3 52.1346 3H48V6.60577Z" fill="black"/>
</g>
<g id="XMLID_224_">
<path id="XMLID_232_" d="M75.7981 11.7692L75.75 12.8269H67V1H75.4135L75.4615 2.10577H68.2019V6.19231H74.4519V7.15385H68.2019V11.7692H75.7981Z" fill="#57AD56" stroke="#57AD56" stroke-width="0.25"/>
<g id="XMLID_229_">
<path fill-rule="evenodd" clip-rule="evenodd" d="M82.6442 9.75H89.6154L90.9615 12.8269H92.3077L86.875 1H85.4808L80 12.8269H81.2981L82.6442 9.75ZM83 8.92308L85.5481 3.20192L86.0288 2H86.0769L86.5577 3.20192L89.0577 8.92308H83Z" fill="#57AD56"/>
<path d="M89.6154 9.75L89.7299 9.6999L89.6971 9.625H89.6154V9.75ZM82.6442 9.75V9.625H82.5625L82.5297 9.6999L82.6442 9.75ZM90.9615 12.8269L90.847 12.877L90.8798 12.9519H90.9615V12.8269ZM92.3077 12.8269V12.9519H92.5027L92.4213 12.7747L92.3077 12.8269ZM86.875 1L86.9886 0.947823L86.9551 0.875H86.875V1ZM85.4808 1V0.875H85.4009L85.3674 0.947442L85.4808 1ZM80 12.8269L79.8866 12.7744L79.8043 12.9519H80V12.8269ZM81.2981 12.8269V12.9519H81.3798L81.4126 12.877L81.2981 12.8269ZM85.5481 3.20192L85.6623 3.25282L85.6641 3.24835L85.5481 3.20192ZM83 8.92308L82.8858 8.87222L82.8075 9.04808H83V8.92308ZM86.0288 2V1.875H85.9442L85.9128 1.95358L86.0288 2ZM86.0769 2L86.193 1.95358L86.1616 1.875H86.0769V2ZM86.5577 3.20192L86.4416 3.24837L86.4432 3.25197L86.5577 3.20192ZM89.0577 8.92308V9.04808H89.2487L89.1722 8.87303L89.0577 8.92308ZM89.6154 9.625H82.6442V9.875H89.6154V9.625ZM91.0761 12.7768L89.7299 9.6999L89.5009 9.8001L90.847 12.877L91.0761 12.7768ZM92.3077 12.7019H90.9615V12.9519H92.3077V12.7019ZM86.7614 1.05218L92.1941 12.8791L92.4213 12.7747L86.9886 0.947823L86.7614 1.05218ZM85.4808 1.125H86.875V0.875H85.4808V1.125ZM80.1134 12.8795L85.5942 1.05256L85.3674 0.947442L79.8866 12.7744L80.1134 12.8795ZM81.2981 12.7019H80V12.9519H81.2981V12.7019ZM82.5297 9.6999L81.1836 12.7768L81.4126 12.877L82.7588 9.8001L82.5297 9.6999ZM85.4339 3.15107L82.8858 8.87222L83.1142 8.97393L85.6623 3.25278L85.4339 3.15107ZM85.9128 1.95358L85.432 3.1555L85.6641 3.24835L86.1449 2.04642L85.9128 1.95358ZM86.0769 1.875H86.0288V2.125H86.0769V1.875ZM86.6738 3.1555L86.193 1.95358L85.9609 2.04642L86.4416 3.24835L86.6738 3.1555ZM89.1722 8.87303L86.6722 3.15187L86.4432 3.25197L88.9431 8.97313L89.1722 8.87303ZM83 9.04808H89.0577V8.79808H83V9.04808Z" fill="#57AD56"/>
</g>
<path id="XMLID_227_" d="M101.625 2.10577V12.8269H100.423V2.10577H96L96.0481 1H106.096V2.10577H101.625Z" fill="#57AD56" stroke="#57AD56" stroke-width="0.25"/>
<path id="XMLID_225_" d="M113.99 13.3077C112.356 13.3077 111.058 12.9231 110 12.2981L110.192 11.2404C111.298 11.8654 112.548 12.25 114.038 12.25C116.25 12.25 117.404 11.2404 117.404 9.79808C117.404 6.67308 110.192 8.30769 110.192 4.26923C110.192 2.53846 111.49 1 114.519 1C115.913 1 117.163 1.24038 118.173 1.72115L117.981 2.73077C116.875 2.29808 115.817 2.05769 114.567 2.05769C112.212 2.05769 111.346 3.11538 111.346 4.17308C111.346 7.15385 118.558 5.47115 118.558 9.70192C118.51 11.8173 116.971 13.3077 113.99 13.3077Z" fill="#57AD56" stroke="#57AD56" stroke-width="0.25"/>
</g>
</g>
</svg>
