<svg width="191" height="20" viewBox="0 0 191 20" fill="none" xmlns="http://www.w3.org/2000/svg">
<path d="M14.1 0.48V11.52C14.1 15.2 12.6 16.72 9 16.72C5.4 16.72 3.9 15.2 3.9 11.52V0H0.45C0.225 0 0 0.24 0 0.48V11.68C0 17.84 3.675 20 9 20C14.325 20 18 17.84 18 11.68V0H14.55C14.325 0 14.1 0.16 14.1 0.48Z" fill="white"/>
<path d="M65.4638 3.25203C65.7651 3.25203 65.9158 3.17073 65.9911 2.92683L66.9704 0.243902C67.0458 0.0813008 66.9704 0 66.8198 0H52.808C51.5273 0 51 0.406504 51 1.38211V18.7805C51 19.5935 51.3767 20 52.356 20H65.3885C65.6898 20 65.8405 19.9187 65.9158 19.6748L66.8951 16.9919C66.9704 16.8293 66.8951 16.748 66.7445 16.748H54.8419V13.1707C54.8419 11.9512 55.4446 11.3821 57.1772 11.3821H62.3752C62.6765 11.3821 62.8272 11.3008 62.9025 11.0569L63.8818 8.45529C63.9572 8.29268 63.8818 8.21138 63.7312 8.21138H54.9173V3.17073H65.4638V3.25203Z" fill="white"/>
<path fill-rule="evenodd" clip-rule="evenodd" d="M40.9441 9.43089C42.5089 8.53659 43.1348 6.99187 43.1348 5.04065C43.1348 0.650406 39.6922 0 36.0931 0H27.8778C26.5477 0 26 0.406504 26 1.38211V18.7805C26 19.5935 26.3912 20 27.4083 20H37.5015C41.3353 20 43.9955 18.4553 43.9955 14.4715C44.0737 12.0325 43.1348 10 40.9441 9.43089ZM30 3H36.2845C38.3793 3 39 3.80645 39 5.5C39 7.19355 38.3793 8 36.2845 8H30V3ZM30 17H37.1094C39.375 17 40 16.2537 40 14.5373C40 12.8209 39.375 12 37.1094 12H32.4219C30.625 12 30 12.5224 30 13.6418V17Z" fill="white"/>
<path fill-rule="evenodd" clip-rule="evenodd" d="M87.694 11.9512L91.9492 19.6748C92.0265 19.7561 92.0265 20 91.8718 20H88.2356C87.9261 20 87.8487 19.9187 87.694 19.6748L83.8256 12.3577H80.3441C78.5647 12.3577 77.9457 12.9268 77.9457 14.1463V20H74.4642C74.2321 20 74 19.7561 74 19.5122V1.38211C74 0.406504 74.5416 0 75.8568 0H83.9804C88.6998 0 91.5623 1.30081 91.5623 6.17886C91.5623 9.9187 89.7829 11.3821 87.694 11.9512ZM78 9H84.88C87.44 9 88 8.04 88 5.96C88 3.96 87.44 3 84.88 3H78V9Z" fill="white"/>
<path d="M122 17.3008L121.923 19H108V0H121.388L121.464 1.77642H109.913V8.34146H119.858V9.88618H109.913V17.3008H122Z" fill="#57AD56"/>
<path fill-rule="evenodd" clip-rule="evenodd" d="M133.297 14.0569H144.625L146.812 19H149L140.172 0H137.906L129 19H131.109L133.297 14.0569ZM134 12L138.206 2.90972L139 1H139.079L139.873 2.90972L144 12H134Z" fill="#57AD56"/>
<path d="M162.914 1.77642V19H161.01V1.77642H154L154.076 0H170V1.77642H162.914Z" fill="#57AD56"/>
<path d="M183.528 20C180.854 20 178.73 19.375 177 18.3594L177.315 16.6406C179.124 17.6562 181.169 18.2812 183.607 18.2812C187.225 18.2812 189.112 16.6406 189.112 14.2969C189.112 9.21875 177.315 11.875 177.315 5.3125C177.315 2.5 179.438 0 184.393 0C186.674 0 188.719 0.390625 190.371 1.17188L190.056 2.8125C188.247 2.10938 186.517 1.71875 184.472 1.71875C180.618 1.71875 179.202 3.4375 179.202 5.15625C179.202 10 191 7.26562 191 14.1406C190.921 17.5781 188.404 20 183.528 20Z" fill="#57AD56"/>
</svg>
